<?xml version="1.0" encoding="UTF-8" standalone="no"?>
<!DOCTYPE svg PUBLIC "-//W3C//DTD SVG 1.1//EN" "http://www.w3.org/Graphics/SVG/1.1/DTD/svg11.dtd">
<svg width="100%" height="100%" viewBox="0 0 105 76" version="1.1" xmlns="http://www.w3.org/2000/svg" xmlns:xlink="http://www.w3.org/1999/xlink" xml:space="preserve" xmlns:serif="http://www.serif.com/" style="fill-rule:evenodd;clip-rule:evenodd;stroke-linejoin:round;stroke-miterlimit:2;">
    <g transform="matrix(1,0,0,1,-0.8,-1.95)">
        <path d="M15.47,66.77L11.59,77.45C8.59,75.7 8.59,75.56 9.8,72.79C10.46,71.28 11.09,69.79 11.8,68.26C12.51,66.73 13,65.34 13.68,63.9C9.79,64.17 8.03,62.9 6.56,58.9C5.56,56.19 4.18,53.56 3.65,50.77C3.12,47.98 0.65,46 0.81,42.85C1.164,42.903 1.504,43.025 1.81,43.21C5.75,46.85 9.74,50.45 13.56,54.21C14.702,55.556 15.707,57.014 16.56,58.56L19.38,54.08C16.08,54.18 14.3,51.66 13.59,48.88C12.59,44.73 11.53,40.58 10.52,36.42C10.409,35.877 10.486,35.313 10.74,34.82C11.78,35.93 12.94,37 14,38.12C16.52,40.98 19,43.87 21.41,46.83C21.946,47.7 22.379,48.63 22.7,49.6L25.48,46.24C22.95,44.898 21.375,42.244 21.41,39.38C21.27,36.69 20.76,34.03 20.41,31.38C20.227,30.014 20.194,28.633 20.31,27.26C23.9,32 28.6,36 30.05,42.29L33.4,39.95C32.65,39.27 31.8,38.47 30.92,37.72C29.5,36.51 29.85,34.8 29.85,33.31C29.85,30.11 30.12,26.92 30.32,23.72C30.32,22.93 30.56,22.15 30.71,21.25C33.29,23.47 37.88,34.78 37.47,37.86L41.1,36.78C38.933,34.907 38.042,31.936 38.82,29.18C38.953,27.867 38.953,26.543 38.82,25.23C38.766,22.891 38.883,20.552 39.17,18.23C41.56,20.54 42.66,23.48 43.97,26.3C45.28,29.12 46.46,32.13 45.19,35.67L48.57,34.87C45.02,30.54 46.7,25.5 46.57,20.7C46.607,19.53 46.872,18.378 47.35,17.31C50.35,22.41 53.98,27.16 52.74,33.75L56.24,32.82C54.09,30.82 53.96,28.51 54.24,25.95C54.383,23.492 54.383,21.028 54.24,18.57C54.198,17.832 54.275,17.093 54.47,16.38C57.39,20.98 60.17,25.59 60.47,31.46L63.81,30.81C61.16,29.02 61.12,26.64 61.55,23.93C61.98,21.22 61.91,18.71 62.42,15.87C63.57,18 64.83,20.09 65.85,22.28C66.87,24.47 68.13,26.8 66.99,29.77L70.16,28.77C67.74,26.92 68.23,24.59 68.45,22.32C68.71,19.59 68.98,16.87 69.45,14.1C71.66,18.26 74.06,22.32 74.24,27.41L76.13,26.66C74.626,25.056 74.034,22.795 74.56,20.66C75.09,18.02 75.35,15.33 75.9,12.58C77.9,16.34 79.62,20.22 79.76,24.75L82.11,23.39C79.05,20.82 80.71,17.78 81.02,14.89C81.142,13.563 81.39,12.25 81.76,10.97C83.63,14.005 84.789,17.424 85.15,20.97L87.27,19.66C84.95,18.52 85.17,16.45 85.42,14.53C85.69,12.4 86.28,10.31 86.74,8.2L87.29,8L90.29,17.27L92.29,15.86C90.54,15.01 90.21,14.19 90.55,12.2C90.93,9.96 91.21,7.69 91.55,5.44C91.608,5.193 91.688,4.952 91.79,4.72C93.25,5.63 95.26,11.72 94.85,13.18L104.58,15.84C101.58,17.78 94.81,18.84 93.3,15.73L91.52,17L99.31,21.2C97.16,23 89.95,22 88.42,19.83L86.34,21.08L94.08,27.55L93.8,28.11C91.8,28.33 89.93,27.48 88.05,27C86.17,26.52 83.9,26.1 83.41,23.42L81.28,25C84.08,27.37 85.96,30.35 87.86,33.6C84,33.32 78,29.37 77.58,26.95L75,28C78.36,30.89 79.28,35.15 81.88,38.51C81.649,38.628 81.398,38.702 81.14,38.73C78.41,37 75.59,35.34 73,33.37C72,32.57 71.44,31.06 70.59,29.72L68.48,30.41C72.24,33.81 73.35,38.57 75.81,42.6L75.26,43C72.21,40.73 69.09,38.54 66.14,36.15C64.679,35.158 64.185,33.207 65,31.64L61.38,32.77C66.2,36.11 67.67,41.59 71.07,45.69L70.64,46.16C69.06,45.28 67.42,44.48 65.9,43.5C63.696,42.118 61.569,40.615 59.53,39C58.07,37.81 56.73,36.34 57.77,33.82L54.88,34.68C58.44,38.87 59.41,44.24 61.88,48.89L61.13,49.42C57.66,46.42 54.13,43.42 50.74,40.27C49.615,39.26 49.31,37.605 50,36.26L46.81,37C50.66,41.1 52.44,46.31 54.86,51.17L54.41,51.54C53.04,50.54 51.62,49.65 50.3,48.61C48.231,47.048 46.245,45.379 44.35,43.61C43,42.33 41.48,40.85 42,38.43L39.65,39.22L49.32,53.86L48.81,54.46C47.81,53.97 46.76,53.56 45.81,52.98C42.81,51.1 39.75,49.21 36.81,47.23C34.951,46.125 33.916,44.016 34.18,41.87L30.8,44.16C37.03,47.38 39.9,53.57 44.17,58.49L43.81,59C41.7,58.16 39.54,57.46 37.51,56.46C34.51,55.01 31.65,53.46 28.83,51.75C27.792,50.918 26.862,49.961 26.06,48.9L24,51.72C27.21,51.72 29.3,53.6 31.31,55.47C34.52,58.47 37.58,61.62 40.69,64.72C40.915,65.009 41.103,65.325 41.25,65.66C40.892,65.71 40.528,65.71 40.17,65.66C34.17,64.12 28.17,62.43 22.82,59C21.998,58.363 21.229,57.66 20.52,56.9L18.08,61.22C19.23,61.12 20.18,60.76 20.91,61.02C22.429,61.492 23.849,62.238 25.1,63.22C27.16,65.04 28.93,67.22 30.84,69.16C32.29,70.66 33.84,72.11 35.25,73.6C35.575,73.966 35.878,74.35 36.16,74.75L35.93,75.11C33.34,74.49 30.74,73.93 28.17,73.24C25.183,72.447 22.217,71.597 19.27,70.69C17.449,70.069 16.034,68.609 15.47,66.77Z" style="fill:rgb(85,137,66);fill-rule:nonzero;"/>
    </g>
    <g transform="matrix(1,0,0,1,-0.8,-1.95)">
        <path d="M104.9,2.32C103.27,5.22 101.77,8.2 99.9,10.97C99.32,11.85 97.9,12.2 96.83,12.82C95.73,9.94 96.01,8.97 97.83,7.4C99.65,5.83 101.35,4.3 103.13,2.77C103.534,2.464 103.958,2.187 104.4,1.94L104.9,2.32Z" style="fill:rgb(85,137,66);fill-rule:nonzero;"/>
    </g>
</svg>
